<mxfile host="app.diagrams.net" modified="2023-09-24T22:26:39.827Z" agent="Mozilla/5.0 (Windows NT 10.0; Win64; x64; rv:109.0) Gecko/20100101 Firefox/117.0" etag="VmjwZdWef359-yJYJ8iJ" version="21.7.1" type="github">
  <diagram name="Sivu-1" id="u8w1255cLJUokRJfRU84">
    <mxGraphModel dx="1382" dy="1913" grid="1" gridSize="5" guides="1" tooltips="1" connect="1" arrows="1" fold="1" page="1" pageScale="1" pageWidth="827" pageHeight="1169" math="1" shadow="0">
      <root>
        <mxCell id="0" />
        <mxCell id="1" parent="0" />
        <mxCell id="19g5wpBG-z4xOQPj4vC4-21" value="" style="endArrow=none;html=1;rounded=0;exitX=0.498;exitY=0.138;exitDx=0;exitDy=0;exitPerimeter=0;" parent="1" source="19g5wpBG-z4xOQPj4vC4-19" edge="1">
          <mxGeometry width="50" height="50" relative="1" as="geometry">
            <mxPoint x="560" y="270" as="sourcePoint" />
            <mxPoint x="560" y="250" as="targetPoint" />
          </mxGeometry>
        </mxCell>
        <mxCell id="19g5wpBG-z4xOQPj4vC4-25" style="edgeStyle=orthogonalEdgeStyle;rounded=0;orthogonalLoop=1;jettySize=auto;html=1;entryX=0;entryY=0.5;entryDx=0;entryDy=0;" parent="1" source="ajAWkNfieeJ6ma5MIzeF-12" target="ajAWkNfieeJ6ma5MIzeF-1" edge="1">
          <mxGeometry relative="1" as="geometry" />
        </mxCell>
        <mxCell id="ajAWkNfieeJ6ma5MIzeF-12" value="&lt;font style=&quot;font-size: 18px;&quot;&gt;$$S(z)$$&lt;/font&gt;" style="rounded=0;whiteSpace=wrap;html=1;" parent="1" vertex="1">
          <mxGeometry x="610" y="30" width="80" height="40" as="geometry" />
        </mxCell>
        <mxCell id="ajAWkNfieeJ6ma5MIzeF-18" value="" style="endArrow=classic;html=1;rounded=0;exitX=0.5;exitY=0;exitDx=0;exitDy=0;" parent="1" edge="1">
          <mxGeometry width="50" height="50" relative="1" as="geometry">
            <mxPoint x="370" y="260" as="sourcePoint" />
            <mxPoint x="420" y="-120" as="targetPoint" />
            <Array as="points">
              <mxPoint x="370" y="200" />
              <mxPoint x="350" y="200" />
            </Array>
          </mxGeometry>
        </mxCell>
        <mxCell id="ajAWkNfieeJ6ma5MIzeF-3" value="&lt;font style=&quot;font-size: 18px;&quot;&gt;$$W_{sin,1}(z)$$&lt;/font&gt;" style="rounded=0;whiteSpace=wrap;html=1;" parent="1" vertex="1">
          <mxGeometry x="345" y="-45" width="90" height="40" as="geometry" />
        </mxCell>
        <mxCell id="ajAWkNfieeJ6ma5MIzeF-20" value="&lt;font size=&quot;1&quot; color=&quot;#0000cc&quot;&gt;&lt;i style=&quot;font-size: 14px;&quot;&gt;$$d(n)$$&lt;/i&gt;&lt;/font&gt;" style="text;html=1;strokeColor=none;fillColor=none;align=center;verticalAlign=middle;whiteSpace=wrap;rounded=0;" parent="1" vertex="1">
          <mxGeometry x="710" y="-75" width="60" height="30" as="geometry" />
        </mxCell>
        <mxCell id="ajAWkNfieeJ6ma5MIzeF-21" value="&lt;font size=&quot;1&quot; color=&quot;#cc0000&quot;&gt;&lt;i style=&quot;font-size: 14px;&quot;&gt;$$y(n)$$&lt;/i&gt;&lt;/font&gt;" style="text;html=1;strokeColor=none;fillColor=none;align=center;verticalAlign=middle;whiteSpace=wrap;rounded=0;" parent="1" vertex="1">
          <mxGeometry x="680" y="20" width="60" height="30" as="geometry" />
        </mxCell>
        <mxCell id="ajAWkNfieeJ6ma5MIzeF-22" value="&lt;font size=&quot;1&quot; color=&quot;#009900&quot;&gt;&lt;i style=&quot;font-size: 14px;&quot;&gt;$$e(n)$$&lt;/i&gt;&lt;/font&gt;" style="text;html=1;strokeColor=none;fillColor=none;align=center;verticalAlign=middle;whiteSpace=wrap;rounded=0;" parent="1" vertex="1">
          <mxGeometry x="770" y="20" width="60" height="30" as="geometry" />
        </mxCell>
        <mxCell id="ajAWkNfieeJ6ma5MIzeF-23" value="&lt;font size=&quot;1&quot; color=&quot;#7f00ff&quot;&gt;&lt;i style=&quot;font-size: 14px;&quot;&gt;$$u(n)$$&lt;/i&gt;&lt;/font&gt;" style="text;html=1;strokeColor=none;fillColor=none;align=center;verticalAlign=middle;whiteSpace=wrap;rounded=0;" parent="1" vertex="1">
          <mxGeometry x="530" y="20" width="60" height="30" as="geometry" />
        </mxCell>
        <mxCell id="CBB9v3UhZUv1EWWix4jz-1" value="&lt;font style=&quot;font-size: 18px;&quot;&gt;$$\hat {S}(z)$$&lt;/font&gt;" style="rounded=0;whiteSpace=wrap;html=1;" parent="1" vertex="1">
          <mxGeometry x="220" y="220" width="70" height="45" as="geometry" />
        </mxCell>
        <mxCell id="CBB9v3UhZUv1EWWix4jz-2" value="&lt;font size=&quot;1&quot; color=&quot;#cc6600&quot;&gt;&lt;i style=&quot;font-size: 14px;&quot;&gt;$$\hat{x}(n)$$&lt;/i&gt;&lt;/font&gt;" style="text;html=1;strokeColor=none;fillColor=none;align=center;verticalAlign=middle;whiteSpace=wrap;rounded=0;" parent="1" vertex="1">
          <mxGeometry x="285" y="193" width="60" height="30" as="geometry" />
        </mxCell>
        <mxCell id="19g5wpBG-z4xOQPj4vC4-1" value="&lt;font style=&quot;font-size: 18px;&quot;&gt;$$\hat {S}(z)$$&lt;/font&gt;" style="rounded=0;whiteSpace=wrap;html=1;" parent="1" vertex="1">
          <mxGeometry x="540" y="118" width="40" height="70" as="geometry" />
        </mxCell>
        <mxCell id="3sO2YfJtq2BWgRdyIDpK-13" style="edgeStyle=orthogonalEdgeStyle;rounded=0;orthogonalLoop=1;jettySize=auto;html=1;entryX=0;entryY=0.5;entryDx=0;entryDy=0;" parent="1" source="19g5wpBG-z4xOQPj4vC4-3" target="3sO2YfJtq2BWgRdyIDpK-9" edge="1">
          <mxGeometry relative="1" as="geometry">
            <mxPoint x="80" y="-75.6896551724138" as="targetPoint" />
            <Array as="points">
              <mxPoint x="40" y="340" />
              <mxPoint x="40" y="-75" />
              <mxPoint x="330" y="-75" />
            </Array>
          </mxGeometry>
        </mxCell>
        <mxCell id="19g5wpBG-z4xOQPj4vC4-3" value="$$+$$" style="ellipse;whiteSpace=wrap;html=1;aspect=fixed;" parent="1" vertex="1">
          <mxGeometry x="550" y="330" width="20" height="20" as="geometry" />
        </mxCell>
        <mxCell id="19g5wpBG-z4xOQPj4vC4-7" value="" style="endArrow=classic;html=1;rounded=0;entryX=1;entryY=0.5;entryDx=0;entryDy=0;" parent="1" target="19g5wpBG-z4xOQPj4vC4-3" edge="1">
          <mxGeometry width="50" height="50" relative="1" as="geometry">
            <mxPoint x="800" y="50" as="sourcePoint" />
            <mxPoint x="610" y="280" as="targetPoint" />
            <Array as="points">
              <mxPoint x="800" y="340" />
            </Array>
          </mxGeometry>
        </mxCell>
        <mxCell id="19g5wpBG-z4xOQPj4vC4-10" value="" style="verticalLabelPosition=bottom;verticalAlign=top;html=1;shape=mxgraph.basic.arc;startAngle=0.5;endAngle=0;rotation=-180;" parent="1" vertex="1">
          <mxGeometry x="550" y="230" width="20" height="20" as="geometry" />
        </mxCell>
        <mxCell id="19g5wpBG-z4xOQPj4vC4-11" value="" style="endArrow=classic;html=1;rounded=0;entryX=0.5;entryY=0;entryDx=0;entryDy=0;exitX=0.5;exitY=1;exitDx=0;exitDy=0;" parent="1" source="19g5wpBG-z4xOQPj4vC4-19" target="19g5wpBG-z4xOQPj4vC4-3" edge="1">
          <mxGeometry width="50" height="50" relative="1" as="geometry">
            <mxPoint x="360" y="422.88" as="sourcePoint" />
            <mxPoint x="410" y="357.88" as="targetPoint" />
          </mxGeometry>
        </mxCell>
        <mxCell id="19g5wpBG-z4xOQPj4vC4-13" value="" style="endArrow=none;html=1;rounded=0;exitX=0;exitY=0.5;exitDx=0;exitDy=0;exitPerimeter=0;" parent="1" source="19g5wpBG-z4xOQPj4vC4-10" edge="1">
          <mxGeometry width="50" height="50" relative="1" as="geometry">
            <mxPoint x="583.75" y="240" as="sourcePoint" />
            <mxPoint x="800" y="240" as="targetPoint" />
          </mxGeometry>
        </mxCell>
        <mxCell id="19g5wpBG-z4xOQPj4vC4-16" value="" style="triangle;whiteSpace=wrap;html=1;rotation=90;" parent="1" vertex="1">
          <mxGeometry x="546.25" y="266.63" width="27.5" height="30" as="geometry" />
        </mxCell>
        <mxCell id="19g5wpBG-z4xOQPj4vC4-19" value="$$-1$$" style="text;html=1;strokeColor=none;fillColor=none;align=center;verticalAlign=middle;whiteSpace=wrap;rounded=0;" parent="1" vertex="1">
          <mxGeometry x="550" y="266.63" width="20" height="19.62" as="geometry" />
        </mxCell>
        <mxCell id="Sn_Hnqk2rVKAqvTwFwJM-2" style="edgeStyle=orthogonalEdgeStyle;rounded=0;orthogonalLoop=1;jettySize=auto;html=1;" edge="1" parent="1" source="ajAWkNfieeJ6ma5MIzeF-1">
          <mxGeometry relative="1" as="geometry">
            <mxPoint x="840" y="50" as="targetPoint" />
          </mxGeometry>
        </mxCell>
        <mxCell id="ajAWkNfieeJ6ma5MIzeF-1" value="$$+$$" style="ellipse;whiteSpace=wrap;html=1;aspect=fixed;" parent="1" vertex="1">
          <mxGeometry x="750" y="40" width="20" height="20" as="geometry" />
        </mxCell>
        <mxCell id="19g5wpBG-z4xOQPj4vC4-26" value="" style="endArrow=classic;html=1;rounded=0;entryX=0.5;entryY=0;entryDx=0;entryDy=0;" parent="1" target="ajAWkNfieeJ6ma5MIzeF-1" edge="1">
          <mxGeometry width="50" height="50" relative="1" as="geometry">
            <mxPoint x="760" y="-115" as="sourcePoint" />
            <mxPoint x="680" y="130" as="targetPoint" />
          </mxGeometry>
        </mxCell>
        <mxCell id="19g5wpBG-z4xOQPj4vC4-27" value="&lt;font size=&quot;1&quot; color=&quot;#cc0000&quot;&gt;&lt;i style=&quot;font-size: 14px;&quot;&gt;$$\hat{y}(n)$$&lt;/i&gt;&lt;/font&gt;" style="text;html=1;strokeColor=none;fillColor=none;align=center;verticalAlign=middle;whiteSpace=wrap;rounded=0;" parent="1" vertex="1">
          <mxGeometry x="550" y="290" width="60" height="30" as="geometry" />
        </mxCell>
        <mxCell id="3sO2YfJtq2BWgRdyIDpK-2" value="&lt;font style=&quot;font-size: 18px;&quot;&gt;$$\cos[\pi \hat{d}(n)]$$&lt;/font&gt;" style="rounded=0;whiteSpace=wrap;html=1;" parent="1" vertex="1">
          <mxGeometry x="95" y="5" width="125" height="40" as="geometry" />
        </mxCell>
        <mxCell id="3sO2YfJtq2BWgRdyIDpK-3" value="&lt;font style=&quot;font-size: 18px;&quot;&gt;$$\sin[\pi \hat{d}(n)]$$&lt;/font&gt;" style="rounded=0;whiteSpace=wrap;html=1;" parent="1" vertex="1">
          <mxGeometry x="95" y="-45" width="125" height="40" as="geometry" />
        </mxCell>
        <mxCell id="3sO2YfJtq2BWgRdyIDpK-4" value="&lt;font style=&quot;font-size: 18px;&quot;&gt;$$\cos[K\pi \hat{d}(n)]$$&lt;/font&gt;" style="rounded=0;whiteSpace=wrap;html=1;" parent="1" vertex="1">
          <mxGeometry x="95" y="140" width="125" height="40" as="geometry" />
        </mxCell>
        <mxCell id="3sO2YfJtq2BWgRdyIDpK-5" value="&lt;font style=&quot;font-size: 18px;&quot;&gt;$$\sin[K\pi \hat{d}(n)]$$&lt;/font&gt;" style="rounded=0;whiteSpace=wrap;html=1;" parent="1" vertex="1">
          <mxGeometry x="95" y="90" width="125" height="40" as="geometry" />
        </mxCell>
        <mxCell id="3sO2YfJtq2BWgRdyIDpK-6" value="&lt;font style=&quot;font-size: 18px;&quot;&gt;$$W_{cos,1}(z)$$&lt;/font&gt;" style="rounded=0;whiteSpace=wrap;html=1;" parent="1" vertex="1">
          <mxGeometry x="345" y="5" width="90" height="40" as="geometry" />
        </mxCell>
        <mxCell id="3sO2YfJtq2BWgRdyIDpK-7" value="&lt;div&gt;&lt;font style=&quot;font-size: 18px;&quot;&gt;$$W_{sin,K}(z)$$&lt;/font&gt;&lt;/div&gt;" style="rounded=0;whiteSpace=wrap;html=1;" parent="1" vertex="1">
          <mxGeometry x="345" y="90" width="90" height="40" as="geometry" />
        </mxCell>
        <mxCell id="3sO2YfJtq2BWgRdyIDpK-9" value="&lt;font style=&quot;font-size: 18px;&quot;&gt;$$W_0(z)$$&lt;/font&gt;" style="rounded=0;whiteSpace=wrap;html=1;" parent="1" vertex="1">
          <mxGeometry x="345" y="-95" width="90" height="40" as="geometry" />
        </mxCell>
        <mxCell id="3sO2YfJtq2BWgRdyIDpK-10" value="&lt;font style=&quot;font-size: 18px;&quot;&gt;$$W_{cos,K}(z)$$&lt;/font&gt;" style="rounded=0;whiteSpace=wrap;html=1;" parent="1" vertex="1">
          <mxGeometry x="345" y="140" width="90" height="40" as="geometry" />
        </mxCell>
        <mxCell id="3sO2YfJtq2BWgRdyIDpK-11" value="&lt;font style=&quot;font-size: 16px;&quot;&gt;$$\dots$$&lt;/font&gt;" style="text;html=1;strokeColor=none;fillColor=none;align=center;verticalAlign=middle;whiteSpace=wrap;rounded=0;" parent="1" vertex="1">
          <mxGeometry x="127.5" y="55" width="60" height="25" as="geometry" />
        </mxCell>
        <mxCell id="3sO2YfJtq2BWgRdyIDpK-18" value="" style="endArrow=classic;html=1;rounded=0;entryX=0;entryY=0.5;entryDx=0;entryDy=0;" parent="1" target="3sO2YfJtq2BWgRdyIDpK-3" edge="1">
          <mxGeometry width="50" height="50" relative="1" as="geometry">
            <mxPoint x="40" y="-25" as="sourcePoint" />
            <mxPoint x="90" y="-75" as="targetPoint" />
          </mxGeometry>
        </mxCell>
        <mxCell id="3sO2YfJtq2BWgRdyIDpK-19" value="" style="endArrow=classic;html=1;rounded=0;entryX=0;entryY=0.5;entryDx=0;entryDy=0;" parent="1" target="3sO2YfJtq2BWgRdyIDpK-2" edge="1">
          <mxGeometry width="50" height="50" relative="1" as="geometry">
            <mxPoint x="40" y="25" as="sourcePoint" />
            <mxPoint x="90" y="-25" as="targetPoint" />
          </mxGeometry>
        </mxCell>
        <mxCell id="3sO2YfJtq2BWgRdyIDpK-20" value="" style="endArrow=classic;html=1;rounded=0;entryX=0;entryY=0.5;entryDx=0;entryDy=0;" parent="1" target="3sO2YfJtq2BWgRdyIDpK-5" edge="1">
          <mxGeometry width="50" height="50" relative="1" as="geometry">
            <mxPoint x="40" y="110" as="sourcePoint" />
            <mxPoint x="90" y="65" as="targetPoint" />
          </mxGeometry>
        </mxCell>
        <mxCell id="3sO2YfJtq2BWgRdyIDpK-21" value="" style="endArrow=classic;html=1;rounded=0;entryX=0;entryY=0.5;entryDx=0;entryDy=0;" parent="1" target="3sO2YfJtq2BWgRdyIDpK-4" edge="1">
          <mxGeometry width="50" height="50" relative="1" as="geometry">
            <mxPoint x="40" y="160" as="sourcePoint" />
            <mxPoint x="90" y="110" as="targetPoint" />
          </mxGeometry>
        </mxCell>
        <mxCell id="3sO2YfJtq2BWgRdyIDpK-42" style="edgeStyle=orthogonalEdgeStyle;rounded=0;orthogonalLoop=1;jettySize=auto;html=1;entryX=0;entryY=0.5;entryDx=0;entryDy=0;" parent="1" source="3sO2YfJtq2BWgRdyIDpK-22" target="ajAWkNfieeJ6ma5MIzeF-12" edge="1">
          <mxGeometry relative="1" as="geometry" />
        </mxCell>
        <mxCell id="3sO2YfJtq2BWgRdyIDpK-22" value="$$+$$" style="ellipse;whiteSpace=wrap;html=1;aspect=fixed;" parent="1" vertex="1">
          <mxGeometry x="505" y="40" width="20" height="20" as="geometry" />
        </mxCell>
        <mxCell id="3sO2YfJtq2BWgRdyIDpK-23" value="" style="endArrow=classic;html=1;rounded=0;exitX=1;exitY=0.5;exitDx=0;exitDy=0;entryX=0.245;entryY=0.07;entryDx=0;entryDy=0;entryPerimeter=0;" parent="1" source="3sO2YfJtq2BWgRdyIDpK-9" target="3sO2YfJtq2BWgRdyIDpK-22" edge="1">
          <mxGeometry width="50" height="50" relative="1" as="geometry">
            <mxPoint x="430" y="-65" as="sourcePoint" />
            <mxPoint x="480" y="-115" as="targetPoint" />
          </mxGeometry>
        </mxCell>
        <mxCell id="3sO2YfJtq2BWgRdyIDpK-24" value="" style="endArrow=classic;html=1;rounded=0;exitX=1;exitY=0.5;exitDx=0;exitDy=0;entryX=0;entryY=0;entryDx=0;entryDy=0;" parent="1" source="ajAWkNfieeJ6ma5MIzeF-3" target="3sO2YfJtq2BWgRdyIDpK-22" edge="1">
          <mxGeometry width="50" height="50" relative="1" as="geometry">
            <mxPoint x="485" y="-45" as="sourcePoint" />
            <mxPoint x="535" y="-95" as="targetPoint" />
          </mxGeometry>
        </mxCell>
        <mxCell id="3sO2YfJtq2BWgRdyIDpK-25" value="" style="endArrow=classic;html=1;rounded=0;exitX=1;exitY=0.5;exitDx=0;exitDy=0;entryX=0.016;entryY=0.315;entryDx=0;entryDy=0;entryPerimeter=0;" parent="1" source="3sO2YfJtq2BWgRdyIDpK-6" target="3sO2YfJtq2BWgRdyIDpK-22" edge="1">
          <mxGeometry width="50" height="50" relative="1" as="geometry">
            <mxPoint x="545" y="60" as="sourcePoint" />
            <mxPoint x="595" y="10" as="targetPoint" />
          </mxGeometry>
        </mxCell>
        <mxCell id="3sO2YfJtq2BWgRdyIDpK-26" value="" style="endArrow=classic;html=1;rounded=0;exitX=1;exitY=0.5;exitDx=0;exitDy=0;entryX=0.097;entryY=0.802;entryDx=0;entryDy=0;entryPerimeter=0;" parent="1" source="3sO2YfJtq2BWgRdyIDpK-7" target="3sO2YfJtq2BWgRdyIDpK-22" edge="1">
          <mxGeometry width="50" height="50" relative="1" as="geometry">
            <mxPoint x="470" y="140" as="sourcePoint" />
            <mxPoint x="520" y="90" as="targetPoint" />
          </mxGeometry>
        </mxCell>
        <mxCell id="3sO2YfJtq2BWgRdyIDpK-27" value="" style="endArrow=classic;html=1;rounded=0;exitX=1;exitY=0.5;exitDx=0;exitDy=0;entryX=0.216;entryY=0.934;entryDx=0;entryDy=0;entryPerimeter=0;" parent="1" source="3sO2YfJtq2BWgRdyIDpK-10" target="3sO2YfJtq2BWgRdyIDpK-22" edge="1">
          <mxGeometry width="50" height="50" relative="1" as="geometry">
            <mxPoint x="475" y="135" as="sourcePoint" />
            <mxPoint x="525" y="85" as="targetPoint" />
          </mxGeometry>
        </mxCell>
        <mxCell id="3sO2YfJtq2BWgRdyIDpK-28" value="" style="endArrow=classic;html=1;rounded=0;" parent="1" edge="1">
          <mxGeometry width="50" height="50" relative="1" as="geometry">
            <mxPoint x="230" y="-75" as="sourcePoint" />
            <mxPoint x="230" y="220" as="targetPoint" />
          </mxGeometry>
        </mxCell>
        <mxCell id="3sO2YfJtq2BWgRdyIDpK-29" value="" style="endArrow=classic;html=1;rounded=0;" parent="1" edge="1">
          <mxGeometry width="50" height="50" relative="1" as="geometry">
            <mxPoint x="240" y="-25" as="sourcePoint" />
            <mxPoint x="240" y="220" as="targetPoint" />
          </mxGeometry>
        </mxCell>
        <mxCell id="3sO2YfJtq2BWgRdyIDpK-30" value="" style="endArrow=classic;html=1;rounded=0;" parent="1" edge="1">
          <mxGeometry width="50" height="50" relative="1" as="geometry">
            <mxPoint x="250" y="25" as="sourcePoint" />
            <mxPoint x="250" y="220" as="targetPoint" />
          </mxGeometry>
        </mxCell>
        <mxCell id="3sO2YfJtq2BWgRdyIDpK-31" value="" style="endArrow=classic;html=1;rounded=0;" parent="1" edge="1">
          <mxGeometry width="50" height="50" relative="1" as="geometry">
            <mxPoint x="270" y="110" as="sourcePoint" />
            <mxPoint x="270" y="220" as="targetPoint" />
          </mxGeometry>
        </mxCell>
        <mxCell id="3sO2YfJtq2BWgRdyIDpK-32" value="" style="endArrow=classic;html=1;rounded=0;" parent="1" edge="1">
          <mxGeometry width="50" height="50" relative="1" as="geometry">
            <mxPoint x="280" y="160" as="sourcePoint" />
            <mxPoint x="280" y="220" as="targetPoint" />
          </mxGeometry>
        </mxCell>
        <mxCell id="3sO2YfJtq2BWgRdyIDpK-33" value="&lt;font style=&quot;font-size: 16px;&quot;&gt;$$\dots$$&lt;/font&gt;" style="text;html=1;strokeColor=none;fillColor=none;align=center;verticalAlign=middle;whiteSpace=wrap;rounded=0;rotation=90;" parent="1" vertex="1">
          <mxGeometry x="236" y="188" width="60" height="5" as="geometry" />
        </mxCell>
        <mxCell id="3sO2YfJtq2BWgRdyIDpK-35" value="" style="endArrow=classic;html=1;rounded=0;" parent="1" edge="1">
          <mxGeometry width="50" height="50" relative="1" as="geometry">
            <mxPoint x="290" y="225" as="sourcePoint" />
            <mxPoint x="345" y="225" as="targetPoint" />
          </mxGeometry>
        </mxCell>
        <mxCell id="3sO2YfJtq2BWgRdyIDpK-36" value="" style="endArrow=classic;html=1;rounded=0;" parent="1" edge="1">
          <mxGeometry width="50" height="50" relative="1" as="geometry">
            <mxPoint x="290" y="230" as="sourcePoint" />
            <mxPoint x="345" y="230" as="targetPoint" />
          </mxGeometry>
        </mxCell>
        <mxCell id="3sO2YfJtq2BWgRdyIDpK-37" value="" style="endArrow=classic;html=1;rounded=0;" parent="1" edge="1">
          <mxGeometry width="50" height="50" relative="1" as="geometry">
            <mxPoint x="290" y="235" as="sourcePoint" />
            <mxPoint x="345" y="235" as="targetPoint" />
          </mxGeometry>
        </mxCell>
        <mxCell id="3sO2YfJtq2BWgRdyIDpK-38" value="" style="endArrow=classic;html=1;rounded=0;" parent="1" edge="1">
          <mxGeometry width="50" height="50" relative="1" as="geometry">
            <mxPoint x="290" y="250" as="sourcePoint" />
            <mxPoint x="345" y="250" as="targetPoint" />
          </mxGeometry>
        </mxCell>
        <mxCell id="3sO2YfJtq2BWgRdyIDpK-39" value="" style="endArrow=classic;html=1;rounded=0;" parent="1" edge="1">
          <mxGeometry width="50" height="50" relative="1" as="geometry">
            <mxPoint x="290" y="255" as="sourcePoint" />
            <mxPoint x="345" y="255" as="targetPoint" />
          </mxGeometry>
        </mxCell>
        <mxCell id="3sO2YfJtq2BWgRdyIDpK-40" value="&lt;font style=&quot;font-size: 16px;&quot;&gt;$$\dots$$&lt;/font&gt;" style="text;html=1;strokeColor=none;fillColor=none;align=center;verticalAlign=middle;whiteSpace=wrap;rounded=0;rotation=0;" parent="1" vertex="1">
          <mxGeometry x="285" y="235" width="60" height="5" as="geometry" />
        </mxCell>
        <mxCell id="ajAWkNfieeJ6ma5MIzeF-5" value="&lt;font style=&quot;font-size: 18px;&quot;&gt;$$LMS$$&lt;/font&gt;" style="rounded=0;whiteSpace=wrap;html=1;" parent="1" vertex="1">
          <mxGeometry x="345" y="220" width="90" height="45" as="geometry" />
        </mxCell>
        <mxCell id="3sO2YfJtq2BWgRdyIDpK-44" value="" style="endArrow=classic;html=1;rounded=0;" parent="1" target="19g5wpBG-z4xOQPj4vC4-1" edge="1">
          <mxGeometry width="50" height="50" relative="1" as="geometry">
            <mxPoint x="560" y="50" as="sourcePoint" />
            <mxPoint x="610" as="targetPoint" />
          </mxGeometry>
        </mxCell>
        <mxCell id="3sO2YfJtq2BWgRdyIDpK-45" value="" style="endArrow=none;html=1;rounded=0;exitX=0.5;exitY=1;exitDx=0;exitDy=0;" parent="1" source="19g5wpBG-z4xOQPj4vC4-1" target="19g5wpBG-z4xOQPj4vC4-10" edge="1">
          <mxGeometry width="50" height="50" relative="1" as="geometry">
            <mxPoint x="615" y="175" as="sourcePoint" />
            <mxPoint x="665" y="125" as="targetPoint" />
          </mxGeometry>
        </mxCell>
        <mxCell id="3sO2YfJtq2BWgRdyIDpK-46" value="" style="endArrow=classic;html=1;rounded=0;entryX=0.993;entryY=0.452;entryDx=0;entryDy=0;entryPerimeter=0;" parent="1" target="ajAWkNfieeJ6ma5MIzeF-5" edge="1">
          <mxGeometry width="50" height="50" relative="1" as="geometry">
            <mxPoint x="565" y="240" as="sourcePoint" />
            <mxPoint x="480" y="255" as="targetPoint" />
          </mxGeometry>
        </mxCell>
        <mxCell id="3sO2YfJtq2BWgRdyIDpK-49" value="" style="endArrow=none;html=1;rounded=0;strokeWidth=2;strokeColor=#FFFFFF;" parent="1" edge="1">
          <mxGeometry width="50" height="50" relative="1" as="geometry">
            <mxPoint x="230" y="-23" as="sourcePoint" />
            <mxPoint x="230" y="-27" as="targetPoint" />
          </mxGeometry>
        </mxCell>
        <mxCell id="3sO2YfJtq2BWgRdyIDpK-14" style="edgeStyle=orthogonalEdgeStyle;rounded=0;orthogonalLoop=1;jettySize=auto;html=1;entryX=0;entryY=0.5;entryDx=0;entryDy=0;" parent="1" source="3sO2YfJtq2BWgRdyIDpK-3" target="ajAWkNfieeJ6ma5MIzeF-3" edge="1">
          <mxGeometry relative="1" as="geometry" />
        </mxCell>
        <mxCell id="3sO2YfJtq2BWgRdyIDpK-50" value="" style="endArrow=none;html=1;rounded=0;strokeWidth=2;strokeColor=#FFFFFF;" parent="1" edge="1">
          <mxGeometry width="50" height="50" relative="1" as="geometry">
            <mxPoint x="240" y="27" as="sourcePoint" />
            <mxPoint x="240" y="23" as="targetPoint" />
          </mxGeometry>
        </mxCell>
        <mxCell id="3sO2YfJtq2BWgRdyIDpK-51" value="" style="endArrow=none;html=1;rounded=0;strokeWidth=2;strokeColor=#FFFFFF;" parent="1" edge="1">
          <mxGeometry width="50" height="50" relative="1" as="geometry">
            <mxPoint x="230" y="27" as="sourcePoint" />
            <mxPoint x="230" y="23" as="targetPoint" />
          </mxGeometry>
        </mxCell>
        <mxCell id="3sO2YfJtq2BWgRdyIDpK-15" style="edgeStyle=orthogonalEdgeStyle;rounded=0;orthogonalLoop=1;jettySize=auto;html=1;entryX=0;entryY=0.5;entryDx=0;entryDy=0;" parent="1" source="3sO2YfJtq2BWgRdyIDpK-2" target="3sO2YfJtq2BWgRdyIDpK-6" edge="1">
          <mxGeometry relative="1" as="geometry" />
        </mxCell>
        <mxCell id="3sO2YfJtq2BWgRdyIDpK-52" value="" style="endArrow=none;html=1;rounded=0;strokeWidth=2;strokeColor=#FFFFFF;" parent="1" edge="1">
          <mxGeometry width="50" height="50" relative="1" as="geometry">
            <mxPoint x="230" y="112" as="sourcePoint" />
            <mxPoint x="230" y="108" as="targetPoint" />
          </mxGeometry>
        </mxCell>
        <mxCell id="3sO2YfJtq2BWgRdyIDpK-54" value="" style="endArrow=none;html=1;rounded=0;strokeWidth=2;strokeColor=#FFFFFF;" parent="1" edge="1">
          <mxGeometry width="50" height="50" relative="1" as="geometry">
            <mxPoint x="240" y="112" as="sourcePoint" />
            <mxPoint x="240" y="108" as="targetPoint" />
          </mxGeometry>
        </mxCell>
        <mxCell id="3sO2YfJtq2BWgRdyIDpK-55" value="" style="endArrow=none;html=1;rounded=0;strokeWidth=2;strokeColor=#FFFFFF;" parent="1" edge="1">
          <mxGeometry width="50" height="50" relative="1" as="geometry">
            <mxPoint x="250" y="112" as="sourcePoint" />
            <mxPoint x="250" y="108" as="targetPoint" />
          </mxGeometry>
        </mxCell>
        <mxCell id="3sO2YfJtq2BWgRdyIDpK-16" style="edgeStyle=orthogonalEdgeStyle;rounded=0;orthogonalLoop=1;jettySize=auto;html=1;" parent="1" source="3sO2YfJtq2BWgRdyIDpK-5" target="3sO2YfJtq2BWgRdyIDpK-7" edge="1">
          <mxGeometry relative="1" as="geometry" />
        </mxCell>
        <mxCell id="3sO2YfJtq2BWgRdyIDpK-56" value="" style="endArrow=none;html=1;rounded=0;strokeWidth=2;strokeColor=#FFFFFF;" parent="1" edge="1">
          <mxGeometry width="50" height="50" relative="1" as="geometry">
            <mxPoint x="230" y="162" as="sourcePoint" />
            <mxPoint x="230" y="158" as="targetPoint" />
          </mxGeometry>
        </mxCell>
        <mxCell id="3sO2YfJtq2BWgRdyIDpK-57" value="" style="endArrow=none;html=1;rounded=0;strokeWidth=2;strokeColor=#FFFFFF;" parent="1" edge="1">
          <mxGeometry width="50" height="50" relative="1" as="geometry">
            <mxPoint x="240" y="162" as="sourcePoint" />
            <mxPoint x="240" y="158" as="targetPoint" />
          </mxGeometry>
        </mxCell>
        <mxCell id="3sO2YfJtq2BWgRdyIDpK-58" value="" style="endArrow=none;html=1;rounded=0;strokeWidth=2;strokeColor=#FFFFFF;" parent="1" edge="1">
          <mxGeometry width="50" height="50" relative="1" as="geometry">
            <mxPoint x="270" y="162" as="sourcePoint" />
            <mxPoint x="270" y="158" as="targetPoint" />
          </mxGeometry>
        </mxCell>
        <mxCell id="3sO2YfJtq2BWgRdyIDpK-59" value="" style="endArrow=none;html=1;rounded=0;strokeWidth=2;strokeColor=#FFFFFF;" parent="1" edge="1">
          <mxGeometry width="50" height="50" relative="1" as="geometry">
            <mxPoint x="250" y="162" as="sourcePoint" />
            <mxPoint x="250" y="158" as="targetPoint" />
          </mxGeometry>
        </mxCell>
        <mxCell id="3sO2YfJtq2BWgRdyIDpK-17" style="edgeStyle=orthogonalEdgeStyle;rounded=0;orthogonalLoop=1;jettySize=auto;html=1;entryX=0;entryY=0.5;entryDx=0;entryDy=0;" parent="1" source="3sO2YfJtq2BWgRdyIDpK-4" target="3sO2YfJtq2BWgRdyIDpK-10" edge="1">
          <mxGeometry relative="1" as="geometry" />
        </mxCell>
        <mxCell id="3NsY_oaufpO6qxjP1VHb-3" value="&lt;font style=&quot;font-size: 16px;&quot;&gt;$$\dots$$&lt;/font&gt;" style="text;html=1;strokeColor=none;fillColor=none;align=center;verticalAlign=middle;whiteSpace=wrap;rounded=0;" parent="1" vertex="1">
          <mxGeometry x="360" y="55" width="60" height="25" as="geometry" />
        </mxCell>
        <mxCell id="3NsY_oaufpO6qxjP1VHb-4" value="&lt;div style=&quot;font-size: 15px;&quot;&gt;&lt;font style=&quot;font-size: 14px;&quot; color=&quot;#0000cc&quot;&gt;$$\hat{d}(n)$$&lt;/font&gt;&lt;/div&gt;" style="text;html=1;strokeColor=none;fillColor=none;align=center;verticalAlign=middle;whiteSpace=wrap;rounded=0;" parent="1" vertex="1">
          <mxGeometry x="280" y="-105" width="60" height="30" as="geometry" />
        </mxCell>
        <mxCell id="3NsY_oaufpO6qxjP1VHb-5" value="&lt;div style=&quot;font-size: 15px;&quot;&gt;&lt;font style=&quot;font-size: 14px;&quot; color=&quot;#0000cc&quot;&gt;$$\hat{d}_{sin,1}(n)$$&lt;/font&gt;&lt;/div&gt;" style="text;html=1;strokeColor=none;fillColor=none;align=center;verticalAlign=middle;whiteSpace=wrap;rounded=0;" parent="1" vertex="1">
          <mxGeometry x="280" y="-56" width="60" height="30" as="geometry" />
        </mxCell>
        <mxCell id="3NsY_oaufpO6qxjP1VHb-6" value="&lt;div style=&quot;font-size: 15px;&quot;&gt;&lt;font style=&quot;font-size: 14px;&quot; color=&quot;#0000cc&quot;&gt;$$\hat{d}_{cos,1}(n)$$&lt;/font&gt;&lt;/div&gt;" style="text;html=1;strokeColor=none;fillColor=none;align=center;verticalAlign=middle;whiteSpace=wrap;rounded=0;" parent="1" vertex="1">
          <mxGeometry x="280" y="-5" width="60" height="30" as="geometry" />
        </mxCell>
        <mxCell id="3NsY_oaufpO6qxjP1VHb-7" value="&lt;div style=&quot;font-size: 15px;&quot;&gt;&lt;font style=&quot;font-size: 14px;&quot; color=&quot;#0000cc&quot;&gt;$$\hat{d}_{sin,K}(n)$$&lt;/font&gt;&lt;/div&gt;" style="text;html=1;strokeColor=none;fillColor=none;align=center;verticalAlign=middle;whiteSpace=wrap;rounded=0;" parent="1" vertex="1">
          <mxGeometry x="280" y="80" width="60" height="30" as="geometry" />
        </mxCell>
        <mxCell id="3NsY_oaufpO6qxjP1VHb-8" value="&lt;div style=&quot;font-size: 15px;&quot;&gt;&lt;font style=&quot;font-size: 14px;&quot; color=&quot;#0000cc&quot;&gt;$$\hat{d}_{cos,K}(n)$$&lt;/font&gt;&lt;/div&gt;" style="text;html=1;strokeColor=none;fillColor=none;align=center;verticalAlign=middle;whiteSpace=wrap;rounded=0;" parent="1" vertex="1">
          <mxGeometry x="280" y="130" width="60" height="30" as="geometry" />
        </mxCell>
        <mxCell id="gMs9N-UJpEdLdOCmde7f-1" value="&lt;div&gt;&lt;font size=&quot;1&quot; color=&quot;#cc6600&quot;&gt;&lt;i style=&quot;font-size: 14px;&quot;&gt;$$\hat{x}_{cos,K}(n)$$&lt;/i&gt;&lt;/font&gt;&lt;/div&gt;" style="text;html=1;strokeColor=none;fillColor=none;align=center;verticalAlign=middle;whiteSpace=wrap;rounded=0;" parent="1" vertex="1">
          <mxGeometry x="290" y="261.44" width="60" height="30" as="geometry" />
        </mxCell>
      </root>
    </mxGraphModel>
  </diagram>
</mxfile>
